# xmcd CD database file
#
# Track frame offsets:
#	150
#	18015
#	35643
#	49296
#	68761
#	89827
#	102264
#	122977
#	145974
#	163733
#	184648
#	201973
#
# Disc length: 3039 seconds
#
# Revision: 0
# Processed by: cddbd v1.5.2PL0 Copyright (c) Steve Scherf et al.
# Submitted via: CDex 1.70beta2
#
DISCID=ae0bdd0c
DTITLE=Laura Caviani - Relaxing Jazz
DYEAR=1900
DGENRE=Jazz
TTITLE0=Morning Moon
TTITLE1=Landing on a Riff
TTITLE2=The Water is Wide
TTITLE3="T" Time
TTITLE4=Dinner's Burnin'
TTITLE5=Sleep Baby Sleep
TTITLE6=I Hate to See You Go
TTITLE7=Dreamlife
TTITLE8=Swing Low Sweet Chariot
TTITLE9=Niku Nuki
TTITLE10=And What About Tomorrow
TTITLE11=Watchin' the Game
EXTD=
EXTT0=
EXTT1=
EXTT2=
EXTT3=
EXTT4=
EXTT5=
EXTT6=
EXTT7=
EXTT8=
EXTT9=
EXTT10=
EXTT11=
PLAYORDER=
